<?xml version="1.0" standalone="no"?>
<!DOCTYPE svg PUBLIC "-//W3C//DTD SVG 20010904//EN"
 "http://www.w3.org/TR/2001/REC-SVG-20010904/DTD/svg10.dtd">
<svg version="1.0" xmlns="http://www.w3.org/2000/svg"
 width="490.000000pt" height="490.000000pt" viewBox="0 0 490.000000 490.000000"
 preserveAspectRatio="xMidYMid meet">
<metadata>
Created by potrace 1.11, written by Peter Selinger 2001-2013
</metadata>
<g transform="translate(0.000000,490.000000) scale(0.100000,-0.100000)"
fill="#000000" stroke="none">
<path d="M2355 4573 c-225 -81 -419 -350 -552 -768 -20 -60 -37 -112 -39 -113
-1 -2 -42 5 -91 16 -376 87 -684 76 -886 -31 -76 -40 -159 -130 -188 -204 -33
-83 -33 -238 -1 -343 71 -228 245 -475 528 -750 120 -116 371 -330 388 -330 3
0 4 39 1 88 l-4 87 -93 79 c-51 43 -161 147 -244 230 -280 281 -439 537 -460
743 -18 167 88 285 296 329 116 25 384 15 561 -21 74 -15 140 -30 146 -33 8
-5 6 -35 -8 -102 -119 -577 -129 -1280 -28 -1855 30 -167 21 -156 99 -136 36
9 64 21 64 26 -1 6 -11 66 -23 135 -133 799 -64 1707 176 2305 133 332 311
525 483 525 68 0 155 -40 219 -99 l44 -41 -21 -23 c-39 -42 -62 -107 -62 -183
0 -121 68 -227 179 -277 63 -29 169 -28 232 0 159 71 229 255 156 405 -33 67
-81 112 -155 146 -45 20 -65 24 -133 20 l-79 -3 -62 58 c-36 33 -94 74 -136
95 -66 32 -84 37 -166 39 -68 3 -103 -1 -141 -14z"/>
<path d="M3600 3759 c-260 -25 -560 -102 -863 -222 l-127 -50 80 -44 80 -43
123 44 c159 58 343 110 498 142 166 34 446 44 559 20 157 -33 255 -107 287
-215 50 -173 -84 -463 -351 -756 l-77 -85 -82 73 c-375 333 -862 639 -1366
857 -117 51 -350 140 -366 140 -6 0 -35 -93 -35 -115 0 -19 14 -27 92 -55 587
-208 1261 -621 1687 -1035 442 -428 611 -809 446 -1002 -36 -43 -133 -98 -191
-109 -29 -6 -33 -3 -53 40 -30 62 -107 128 -171 149 -170 55 -335 -34 -385
-207 -39 -132 32 -283 162 -347 71 -36 188 -34 259 3 63 33 128 105 147 161
13 41 16 43 93 68 104 34 157 62 209 110 164 151 177 375 39 652 -76 151 -198
320 -332 459 l-55 57 59 63 c195 209 338 431 396 618 18 59 23 97 22 180 0
133 -22 196 -99 279 -132 142 -368 200 -685 170z"/>
<path d="M2357 2926 c-87 -25 -159 -68 -223 -131 -264 -265 -146 -717 214
-816 330 -92 645 170 619 514 -14 185 -151 362 -327 421 -71 24 -218 30 -283
12z"/>
<path d="M3580 2338 c-30 -27 -116 -96 -190 -152 -571 -434 -1221 -745 -1820
-871 -165 -35 -445 -45 -560 -21 -210 44 -314 161 -296 333 11 109 12 110 108
115 51 3 96 11 116 22 54 28 112 86 140 140 36 70 38 188 4 257 -112 229 -431
230 -543 3 -19 -39 -24 -65 -24 -129 0 -86 20 -142 71 -195 23 -25 23 -27 8
-80 -25 -92 -29 -206 -10 -280 81 -316 494 -425 1089 -288 49 11 90 18 91 16
2 -1 22 -61 45 -133 49 -150 145 -356 216 -465 73 -111 178 -211 272 -257 75
-37 80 -38 183 -38 103 0 109 1 183 38 279 138 510 612 621 1275 35 209 37
199 -26 159 -29 -19 -64 -41 -78 -49 -22 -13 -27 -28 -38 -99 -72 -465 -241
-890 -428 -1074 -216 -212 -441 -127 -642 245 -75 140 -175 421 -156 439 5 5
47 21 94 36 313 102 729 300 1055 503 224 140 566 392 644 475 l23 26 -21 30
c-12 17 -34 39 -49 49 l-27 20 -55 -50z"/>
</g>
</svg>
